<?xml version="1.0" standalone="no"?>
<!DOCTYPE svg PUBLIC "-//W3C//DTD SVG 20010904//EN"
 "http://www.w3.org/TR/2001/REC-SVG-20010904/DTD/svg10.dtd">
<svg version="1.0" xmlns="http://www.w3.org/2000/svg"
 width="640.000000pt" height="640.000000pt" viewBox="0 0 640.000000 640.000000"
 preserveAspectRatio="xMidYMid meet">
<metadata>
Created by potrace 1.11, written by Peter Selinger 2001-2013
</metadata>
<g transform="translate(0.000000,640.000000) scale(0.100000,-0.100000)"
fill="#000000" stroke="none">
<path d="M2940 6279 c-712 -65 -1366 -361 -1873 -849 -518 -497 -832 -1115
-933 -1840 -25 -176 -25 -605 -1 -780 36 -253 90 -473 173 -700 48 -131 199
-433 278 -558 506 -800 1334 -1319 2276 -1427 201 -24 606 -16 800 14 681 106
1294 423 1769 916 450 468 731 1042 833 1700 26 169 35 542 19 722 -55 580
-262 1114 -611 1578 -508 674 -1238 1098 -2085 1210 -146 20 -501 27 -645 14z
m2343 -1040 c3 -12 1 -46 -4 -77 -5 -32 -14 -142 -19 -247 -13 -255 -13 -2878
0 -2926 14 -52 42 -71 165 -118 151 -58 189 -98 130 -137 -24 -16 -45 -16
-255 -4 -186 11 -269 11 -448 0 -185 -11 -223 -11 -248 1 -67 33 -29 81 101
128 119 43 153 66 176 115 18 39 19 95 19 1342 0 876 -3 1319 -11 1358 -23
125 -86 210 -180 241 -62 21 -79 38 -79 80 0 46 15 58 106 83 44 12 176 58
294 101 118 43 222 79 231 80 9 0 19 -8 22 -20z m-3869 -1375 c9 -11 8 -59 -2
-191 -9 -120 -10 -179 -3 -186 7 -7 28 6 68 40 210 180 450 273 708 274 235 2
367 -72 463 -258 24 -46 45 -83 47 -83 2 0 10 -3 19 -6 10 -4 46 24 108 83
134 127 301 210 501 247 109 21 276 22 338 2 153 -48 278 -207 341 -432 21
-77 22 -98 28 -724 3 -461 8 -651 17 -665 20 -36 46 -52 158 -94 61 -24 120
-52 133 -64 30 -28 25 -58 -12 -76 -25 -12 -62 -12 -243 -1 -173 11 -256 11
-442 0 -193 -10 -233 -10 -257 1 -69 33 -26 86 106 133 93 32 150 71 172 116
16 32 18 81 18 585 0 322 -4 577 -10 615 -22 141 -137 303 -255 360 -44 22
-63 24 -165 24 -135 -1 -212 -18 -310 -70 -123 -64 -192 -153 -219 -282 -7
-35 -11 -246 -11 -635 l0 -582 25 -37 c26 -38 94 -76 175 -98 103 -28 155 -76
125 -117 -13 -17 -26 -18 -182 -13 -92 3 -235 5 -318 5 -82 0 -225 -2 -317 -5
-151 -5 -169 -3 -185 13 -16 16 -16 20 -3 45 12 20 37 35 100 60 116 44 170
74 195 106 20 27 20 41 23 614 3 627 2 653 -45 747 -39 77 -117 167 -176 203
-69 42 -141 56 -242 48 -278 -23 -439 -140 -484 -354 -15 -70 -15 -1197 -1
-1238 13 -37 77 -79 150 -101 119 -34 182 -84 159 -125 -15 -28 -62 -30 -284
-17 -173 10 -256 10 -435 -1 -251 -14 -280 -10 -280 41 0 36 36 60 130 89 92
28 141 59 167 105 l23 40 -2 640 -3 640 -23 57 c-27 66 -74 113 -131 128 -22
6 -47 17 -56 26 -16 16 -20 70 -7 91 4 7 50 26 102 43 116 38 236 98 366 184
55 36 105 65 113 66 8 0 19 -7 25 -16z"/>
</g>
</svg>
